<svg xmlns="http://www.w3.org/2000/svg" width="35" height="35" viewBox="0 0 40 40" fill="none">
<path d="M34.6223 13.9539L34.3684 13.5232C34.1454 13.1487 33.8256 12.8378 33.441 12.6214C33.0564 12.4051 32.6204 12.2909 32.1764 12.2902H24.6005C24.2351 12.291 23.8742 12.3688 23.5425 12.5181C23.2107 12.6674 22.9159 12.8848 22.6781 13.1554C22.5778 13.2699 22.4883 13.393 22.4105 13.5232L20.9063 16.0712L18.6284 19.9227C18.6205 19.935 18.6133 19.9477 18.6069 19.9608C18.3962 20.3335 18.2875 20.7529 18.2913 21.1785C18.2951 21.6041 18.4112 22.0216 18.6284 22.3907L22.4144 28.7902C22.6193 29.1347 22.9063 29.426 23.2512 29.6393C23.596 29.8527 23.9885 29.9817 24.3953 30.0156H9.8705C9.46944 30.0169 9.07505 29.9155 8.72674 29.7215C8.37844 29.5275 8.08841 29.2478 7.88566 28.9102L0.307738 16.1226C0.106167 15.784 0 15.3994 0 15.0078C0 14.6162 0.106167 14.2316 0.307738 13.8929L7.88566 1.11487C8.08718 0.775525 8.37667 0.493875 8.72506 0.298187C9.07345 0.1025 9.46848 -0.00033999 9.8705 8.44453e-07H25.0264C25.4281 -0.000198492 25.8228 0.102718 26.1708 0.298408C26.5189 0.494098 26.808 0.775675 27.0092 1.11487L34.089 13.0487L34.5911 13.8929C34.6034 13.9123 34.6139 13.9327 34.6223 13.9539Z" fill="#2916FC"></path>
<path d="M16.5655 7.23886V22.037C16.5655 22.2392 16.4832 22.4331 16.3366 22.576C16.1901 22.719 15.9913 22.7993 15.7841 22.7993H12.8908C12.6836 22.7993 12.4848 22.719 12.3383 22.576C12.1917 22.4331 12.1094 22.2392 12.1094 22.037V7.23886C12.1094 7.03669 12.1917 6.84279 12.3383 6.69983C12.4848 6.55688 12.6836 6.47656 12.8908 6.47656H15.7899C15.9961 6.47807 16.1934 6.55905 16.3387 6.70185C16.484 6.84464 16.5655 7.03767 16.5655 7.23886ZM24.622 7.66194L20.6836 13.362C20.6022 13.4809 20.5566 13.6196 20.5521 13.7625C20.5476 13.9054 20.5844 14.0466 20.6582 14.1701L25.1807 21.6521C25.2491 21.7675 25.2852 21.8983 25.2855 22.0316C25.2858 22.1648 25.2502 22.2959 25.1824 22.4116C25.1146 22.5272 25.0169 22.6236 24.8991 22.6909C24.7812 22.7583 24.6473 22.7944 24.5107 22.7955H21.2267C21.0884 22.7947 20.9527 22.7582 20.8336 22.6895C20.7146 22.6209 20.6163 22.5226 20.5488 22.4048L16.0556 14.5036C15.9887 14.3845 15.9556 14.2502 15.9597 14.1146C15.9639 13.9789 16.005 13.8467 16.079 13.7318L20.5605 6.83484C20.631 6.72776 20.7277 6.63958 20.8421 6.57833C20.9564 6.51708 21.0846 6.48472 21.215 6.48419H23.9715C24.1118 6.485 24.2492 6.52263 24.3695 6.59313C24.4897 6.66363 24.5882 6.76441 24.6548 6.88487C24.7213 7.00534 24.7534 7.14106 24.7476 7.27779C24.7419 7.41452 24.6985 7.54721 24.622 7.66194Z" fill="white"></path>
<path d="M33.581 17.5954L27.8238 27.3224H24.743L21.9279 22.5656L21.0938 21.1573L22.5218 18.7465L23.6901 16.7683L24.743 14.9922H32.0416L33.581 17.5954Z" fill="url(#paint0_linear_218_2308)"></path>
<path opacity="0.68" d="M24.3271 22.8546H21.5608L21.3811 22.5496L20.5469 21.1413L21.9749 18.7305L22.5766 17.7109L24.9971 21.713C25.065 21.8284 25.1007 21.959 25.1007 22.092C25.1008 22.225 25.0652 22.3557 24.9974 22.4711C24.9297 22.5865 24.8322 22.6826 24.7146 22.7499C24.597 22.8172 24.4634 22.8532 24.3271 22.8546Z" fill="white"></path>
<path d="M38.3632 20.4135C38.3091 20.2446 38.2357 20.0823 38.1444 19.9294L34.9621 14.559L34.6065 13.9606L34.3525 13.5299C34.1295 13.1554 33.8098 12.8445 33.4252 12.6281C33.0406 12.4118 32.6046 12.2976 32.1606 12.2969H24.5905C24.2252 12.2977 23.8643 12.3754 23.5325 12.5248C23.2008 12.6741 22.906 12.8915 22.6682 13.1621C22.5679 13.2766 22.4783 13.3997 22.4006 13.5299L20.8963 16.0779L18.6184 19.9294C18.6105 19.9417 18.6034 19.9544 18.5969 19.9675C18.3863 20.3402 18.2776 20.7596 18.2813 21.1852C18.2851 21.6108 18.4012 22.0282 18.6184 22.3974L22.4045 28.7969C22.6093 29.1414 22.8964 29.4327 23.2412 29.646C23.5861 29.8593 23.9785 29.9884 24.3854 30.0223C24.4538 30.0223 24.5241 30.0318 24.5944 30.0318H32.1704C32.2533 30.032 32.3361 30.0276 32.4185 30.0184L35.1086 34.2111C35.2626 34.4484 35.5064 34.6168 35.787 34.6796C36.0676 34.7424 36.3623 34.6946 36.607 34.5465L36.7691 34.4474C37.013 34.2978 37.1864 34.0602 37.2516 33.7864C37.3167 33.5126 37.2683 33.2248 37.1169 32.9857L34.3818 28.7416L38.1386 22.3954C38.3147 22.0983 38.4257 21.7687 38.4643 21.4275C38.503 21.0863 38.4686 20.741 38.3632 20.4135ZM34.8468 22.5574L32.0219 27.3218H24.7292L24.7116 27.2913L21.9161 22.5651L21.0819 21.1548L22.51 18.744L23.6821 16.7678L24.7155 15.0221H32.0493L33.5731 17.5949L35.681 21.1548L34.8468 22.5574Z" fill="#1C0DC9"></path>
<defs>
<linearGradient id="paint0_linear_218_2308" x1="21.0938" y1="21.1573" x2="33.581" y2="21.1573" gradientUnits="userSpaceOnUse">
<stop stop-color="#FF7879"></stop>
<stop offset="0.21" stop-color="#FC777B"></stop>
<stop offset="0.36" stop-color="#F27281"></stop>
<stop offset="0.5" stop-color="#E26B8A"></stop>
<stop offset="0.63" stop-color="#CB6098"></stop>
<stop offset="0.75" stop-color="#AE52AA"></stop>
<stop offset="0.86" stop-color="#8A41C0"></stop>
<stop offset="0.98" stop-color="#602EDA"></stop>
<stop offset="1" stop-color="#5529E0"></stop>
</linearGradient>
</defs>
</svg>