<svg xmlns="http://www.w3.org/2000/svg" width="144" height="35" viewBox="0 0 144 35" fill="none">
<path d="M48.9547 22.2422H45.8998V8.1215H48.9547V22.2422ZM51.8351 15.1818L48.5765 18.7023L48.0237 15.7346L50.1864 12.6797L53.6487 8.1215H57.3922L51.8351 15.1818ZM49.8858 15.8122L52.1455 13.9017L57.5086 22.2422H53.8912L49.8858 15.8122ZM64.2489 11.7487H67.1778V22.2422H64.4332L64.2489 19.7109V11.7487ZM65.4224 17.5191C65.4224 18.4631 65.2769 19.3068 64.986 20.0504C64.7015 20.7874 64.2683 21.3693 63.6864 21.7961C63.111 22.2228 62.3836 22.4362 61.5043 22.4362C60.4698 22.4362 59.6293 22.1355 58.9828 21.5342C58.3427 20.9265 58.0226 19.9275 58.0226 18.5374V11.7487H60.9515V18.5568C60.9515 18.9124 61.0097 19.2034 61.1261 19.4297C61.2489 19.6495 61.417 19.8112 61.6304 19.9146C61.8502 20.0116 62.0991 20.0601 62.3772 20.0601C62.9397 20.0601 63.3793 19.9502 63.6961 19.7303C64.0194 19.5105 64.2457 19.2099 64.375 18.8284C64.5108 18.4469 64.5787 18.017 64.5787 17.5385L65.4224 17.5191ZM72.1724 7.34564V19.7594L71.8718 22.2422H69.2435V7.34564H72.1724ZM78.7672 17.0827C78.7672 18.1301 78.6185 19.0579 78.3211 19.8661C78.0237 20.6743 77.5744 21.3047 76.9731 21.7573C76.3718 22.2099 75.6121 22.4362 74.694 22.4362C73.8276 22.4362 73.1196 22.2034 72.57 21.7379C72.0269 21.2659 71.6034 20.629 71.2996 19.8273C70.9957 19.0191 70.7791 18.1107 70.6498 17.1021V16.8693C70.7791 15.8672 70.9925 14.9652 71.2899 14.1635C71.5938 13.3618 72.0172 12.7282 72.5603 12.2627C73.1099 11.7907 73.8147 11.5547 74.6746 11.5547C75.5991 11.5547 76.3621 11.7842 76.9634 12.2433C77.5711 12.7023 78.0237 13.3327 78.3211 14.1344C78.6185 14.9362 78.7672 15.851 78.7672 16.879V17.0827ZM75.8384 16.879C75.8384 16.3489 75.7866 15.8607 75.6832 15.4146C75.5797 14.962 75.389 14.6032 75.111 14.3381C74.8394 14.0665 74.445 13.9308 73.9278 13.9308C73.5657 13.9308 73.2554 13.989 72.9968 14.1053C72.7381 14.2217 72.5248 14.393 72.3567 14.6193C72.195 14.8392 72.0722 15.1075 71.9881 15.4243C71.9106 15.7411 71.8685 16.0935 71.8621 16.4814V17.4997C71.875 18.017 71.9526 18.4696 72.0948 18.8575C72.2371 19.239 72.4569 19.5364 72.7543 19.7497C73.0582 19.9631 73.4558 20.0698 73.9472 20.0698C74.4644 20.0698 74.8588 19.9437 75.1304 19.6915C75.4019 19.4329 75.5862 19.0805 75.6832 18.6344C75.7866 18.1818 75.8384 17.6646 75.8384 17.0827V16.879ZM85.333 22.4362C84.2274 22.4362 83.2802 22.2066 82.4914 21.7476C81.7091 21.2885 81.1078 20.6743 80.6875 19.9049C80.2737 19.1355 80.0668 18.2853 80.0668 17.3543V16.976C80.0668 15.9286 80.264 14.9976 80.6584 14.1829C81.0593 13.3618 81.6282 12.7185 82.3653 12.253C83.1024 11.7874 83.9817 11.5547 85.0032 11.5547C86.0183 11.5547 86.8718 11.768 87.5636 12.1948C88.2554 12.6215 88.7791 13.2228 89.1347 13.9987C89.4903 14.768 89.6681 15.6732 89.6681 16.7142V17.9555H81.2985V15.9868H86.7877V15.754C86.7877 15.392 86.7231 15.0719 86.5938 14.7939C86.4644 14.5159 86.2672 14.2993 86.0022 14.1441C85.7435 13.989 85.4041 13.9114 84.9838 13.9114C84.5054 13.9114 84.1207 14.0471 83.8297 14.3187C83.5388 14.5902 83.3254 14.9555 83.1897 15.4146C83.0603 15.8737 82.9957 16.3941 82.9957 16.976V17.3543C82.9957 17.8909 83.0959 18.3629 83.2963 18.7702C83.4968 19.1775 83.7845 19.4976 84.1595 19.7303C84.5345 19.9566 84.9871 20.0698 85.5172 20.0698C86.0151 20.0698 86.4806 19.9793 86.9138 19.7982C87.347 19.6107 87.7155 19.3198 88.0194 18.9254L89.4353 20.545C89.1056 21.017 88.5948 21.4502 87.903 21.8446C87.2177 22.239 86.361 22.4362 85.333 22.4362ZM96.8254 19.3133C96.8254 19.1193 96.7672 18.9512 96.6509 18.809C96.5409 18.6668 96.334 18.5342 96.0302 18.4114C95.7263 18.2885 95.2866 18.1657 94.7112 18.0428C94.0065 17.8877 93.3696 17.6775 92.8006 17.4124C92.2381 17.1474 91.7953 16.8047 91.472 16.3844C91.1487 15.9577 90.9871 15.4437 90.9871 14.8424C90.9871 14.254 91.1552 13.7109 91.4914 13.2131C91.8276 12.7152 92.3093 12.3144 92.9364 12.0105C93.57 11.7066 94.3265 11.5547 95.2058 11.5547C96.1239 11.5547 96.9159 11.7002 97.5819 11.9911C98.2478 12.2821 98.7586 12.6829 99.1142 13.1937C99.4698 13.7045 99.6476 14.2896 99.6476 14.9491H96.7187C96.7187 14.5547 96.5959 14.2346 96.3502 13.989C96.111 13.7368 95.7263 13.6107 95.1961 13.6107C94.9116 13.6107 94.6627 13.6592 94.4494 13.7562C94.236 13.8532 94.0711 13.9825 93.9547 14.1441C93.8448 14.2993 93.7899 14.4836 93.7899 14.6969C93.7899 14.8909 93.8513 15.0622 93.9741 15.2109C94.097 15.3596 94.2974 15.489 94.5754 15.5989C94.8534 15.7088 95.2252 15.8058 95.6907 15.8898C96.4343 16.0321 97.1067 16.2293 97.708 16.4814C98.3093 16.7271 98.7877 17.0665 99.1433 17.4997C99.4989 17.9265 99.6767 18.4954 99.6767 19.2066C99.6767 19.8273 99.4925 20.3834 99.1239 20.8747C98.7619 21.3596 98.2446 21.7411 97.5722 22.0191C96.9062 22.2971 96.1207 22.4362 95.2155 22.4362C94.2263 22.4362 93.3922 22.2584 92.7134 21.9027C92.0345 21.5471 91.5205 21.0978 91.1713 20.5547C90.8222 20.0051 90.6476 19.4459 90.6476 18.8769H93.4213C93.4407 19.226 93.5345 19.5105 93.7026 19.7303C93.8772 19.9502 94.1002 20.1118 94.3718 20.2152C94.6498 20.3187 94.9537 20.3704 95.2834 20.3704C95.6196 20.3704 95.9009 20.3284 96.1272 20.2443C96.3599 20.1538 96.5345 20.031 96.6509 19.8758C96.7672 19.7142 96.8254 19.5267 96.8254 19.3133ZM105.806 20.0795C106.136 20.0795 106.427 20.018 106.679 19.8952C106.931 19.7724 107.125 19.5978 107.261 19.3715C107.403 19.1452 107.477 18.8769 107.484 18.5665H110.238C110.232 19.323 110.034 19.9922 109.647 20.5741C109.259 21.156 108.735 21.6118 108.075 21.9415C107.416 22.2713 106.676 22.4362 105.855 22.4362C104.768 22.4362 103.863 22.2002 103.139 21.7282C102.421 21.2562 101.881 20.6193 101.519 19.8176C101.164 19.0159 100.986 18.1204 100.986 17.1312V16.8693C100.986 15.8737 101.164 14.9749 101.519 14.1732C101.881 13.3715 102.421 12.7346 103.139 12.2627C103.863 11.7907 104.765 11.5547 105.845 11.5547C106.711 11.5547 107.471 11.7228 108.124 12.059C108.783 12.3887 109.297 12.864 109.666 13.4846C110.041 14.0989 110.232 14.8359 110.238 15.6959H107.484C107.477 15.3661 107.409 15.0687 107.28 14.8036C107.157 14.5321 106.97 14.3155 106.718 14.1538C106.466 13.9922 106.155 13.9114 105.787 13.9114C105.269 13.9114 104.875 14.0504 104.603 14.3284C104.338 14.6064 104.157 14.9717 104.06 15.4243C103.963 15.8704 103.915 16.3521 103.915 16.8693V17.1312C103.915 17.6549 103.96 18.143 104.051 18.5956C104.148 19.0418 104.332 19.4006 104.603 19.6721C104.881 19.9437 105.282 20.0795 105.806 20.0795ZM117.415 15.2497C117.415 14.7777 117.298 14.4027 117.066 14.1247C116.833 13.8467 116.461 13.7077 115.95 13.7077C115.659 13.7077 115.407 13.7562 115.194 13.8532C114.981 13.9502 114.819 14.0892 114.709 14.2702C114.599 14.4448 114.544 14.6614 114.544 14.92H111.615C111.615 14.2993 111.8 13.7368 112.168 13.2325C112.537 12.7217 113.057 12.3144 113.73 12.0105C114.402 11.7066 115.194 11.5547 116.106 11.5547C116.92 11.5547 117.648 11.6937 118.288 11.9717C118.928 12.2433 119.432 12.6538 119.801 13.2034C120.169 13.753 120.353 14.4415 120.353 15.2691V19.6527C120.353 20.2734 120.389 20.7648 120.46 21.1269C120.538 21.489 120.644 21.8058 120.78 22.0773V22.2422H117.832C117.69 21.9448 117.583 21.573 117.512 21.1269C117.447 20.6808 117.415 20.2282 117.415 19.7691V15.2497ZM117.812 17.5094H116.319C115.608 17.5094 115.094 17.6646 114.777 17.9749C114.46 18.2788 114.302 18.6474 114.302 19.0805C114.302 19.4103 114.418 19.6818 114.651 19.8952C114.884 20.1086 115.197 20.2152 115.592 20.2152C115.999 20.2152 116.348 20.1377 116.639 19.9825C116.936 19.8209 117.163 19.6301 117.318 19.4103C117.48 19.184 117.557 18.9771 117.551 18.7896L118.307 20.0504C118.204 20.309 118.065 20.5773 117.89 20.8553C117.722 21.1334 117.505 21.392 117.24 21.6312C116.975 21.8704 116.652 22.0644 116.27 22.2131C115.895 22.3618 115.453 22.4362 114.942 22.4362C114.282 22.4362 113.681 22.3036 113.138 22.0385C112.595 21.767 112.165 21.3952 111.848 20.9232C111.531 20.4448 111.373 19.8984 111.373 19.2842C111.373 18.1851 111.78 17.3349 112.595 16.7336C113.409 16.1258 114.622 15.8219 116.232 15.8219H117.793L117.812 17.5094ZM125.377 26.2767H122.448V11.7487H125.164L125.377 13.7659V26.2767ZM131.972 17.0827C131.972 18.0978 131.814 19.0094 131.497 19.8176C131.186 20.6258 130.727 21.2659 130.12 21.7379C129.518 22.2034 128.775 22.4362 127.889 22.4362C127.029 22.4362 126.321 22.2034 125.765 21.7379C125.216 21.2659 124.789 20.6323 124.485 19.837C124.181 19.0418 123.961 18.1624 123.825 17.1991V16.8984C123.955 15.8704 124.171 14.9555 124.475 14.1538C124.786 13.3456 125.216 12.712 125.765 12.253C126.321 11.7874 127.026 11.5547 127.879 11.5547C128.765 11.5547 129.512 11.7777 130.12 12.2239C130.727 12.6635 131.186 13.2842 131.497 14.0859C131.814 14.8812 131.972 15.8122 131.972 16.879V17.0827ZM129.043 16.879C129.043 16.3101 128.978 15.8058 128.849 15.3661C128.726 14.92 128.523 14.5709 128.238 14.3187C127.954 14.0601 127.575 13.9308 127.103 13.9308C126.741 13.9308 126.431 13.989 126.172 14.1053C125.92 14.2152 125.71 14.3801 125.542 14.5999C125.38 14.8198 125.258 15.0913 125.173 15.4146C125.096 15.7314 125.051 16.0999 125.038 16.5202V17.587C125.064 18.0655 125.144 18.4922 125.28 18.8672C125.422 19.2422 125.642 19.5396 125.94 19.7594C126.237 19.9728 126.631 20.0795 127.123 20.0795C127.601 20.0795 127.98 19.9437 128.258 19.6721C128.536 19.4006 128.736 19.0385 128.859 18.5859C128.982 18.1269 129.043 17.6258 129.043 17.0827V16.879ZM138.538 22.4362C137.432 22.4362 136.485 22.2066 135.696 21.7476C134.914 21.2885 134.312 20.6743 133.892 19.9049C133.478 19.1355 133.272 18.2853 133.272 17.3543V16.976C133.272 15.9286 133.469 14.9976 133.863 14.1829C134.264 13.3618 134.833 12.7185 135.57 12.253C136.307 11.7874 137.186 11.5547 138.208 11.5547C139.223 11.5547 140.077 11.768 140.768 12.1948C141.46 12.6215 141.984 13.2228 142.339 13.9987C142.695 14.768 142.873 15.6732 142.873 16.7142V17.9555H134.503V15.9868H139.992V15.754C139.992 15.392 139.928 15.0719 139.798 14.7939C139.669 14.5159 139.472 14.2993 139.207 14.1441C138.948 13.989 138.609 13.9114 138.189 13.9114C137.71 13.9114 137.325 14.0471 137.034 14.3187C136.744 14.5902 136.53 14.9555 136.394 15.4146C136.265 15.8737 136.2 16.3941 136.2 16.976V17.3543C136.2 17.8909 136.301 18.3629 136.501 18.7702C136.702 19.1775 136.989 19.4976 137.364 19.7303C137.739 19.9566 138.192 20.0698 138.722 20.0698C139.22 20.0698 139.685 19.9793 140.119 19.7982C140.552 19.6107 140.92 19.3198 141.224 18.9254L142.64 20.545C142.31 21.017 141.8 21.4502 141.108 21.8446C140.422 22.239 139.566 22.4362 138.538 22.4362Z" fill="white"></path>
<path d="M34.6223 13.9539L34.3684 13.5232C34.1454 13.1487 33.8256 12.8378 33.441 12.6214C33.0564 12.4051 32.6204 12.2909 32.1764 12.2902H24.6005C24.2351 12.291 23.8742 12.3688 23.5425 12.5181C23.2107 12.6674 22.9159 12.8848 22.6781 13.1554C22.5778 13.2699 22.4883 13.393 22.4105 13.5232L20.9063 16.0712L18.6284 19.9227C18.6205 19.935 18.6133 19.9477 18.6069 19.9608C18.3962 20.3335 18.2875 20.7529 18.2913 21.1785C18.2951 21.6041 18.4112 22.0216 18.6284 22.3907L22.4144 28.7902C22.6193 29.1347 22.9063 29.426 23.2512 29.6393C23.596 29.8527 23.9885 29.9817 24.3953 30.0156H9.8705C9.46944 30.0169 9.07505 29.9155 8.72674 29.7215C8.37844 29.5275 8.08841 29.2478 7.88566 28.9102L0.307738 16.1226C0.106167 15.784 0 15.3994 0 15.0078C0 14.6162 0.106167 14.2316 0.307738 13.8929L7.88566 1.11487C8.08718 0.775525 8.37667 0.493875 8.72506 0.298187C9.07345 0.1025 9.46848 -0.00033999 9.8705 8.44453e-07H25.0264C25.4281 -0.000198492 25.8228 0.102718 26.1708 0.298408C26.5189 0.494098 26.808 0.775675 27.0092 1.11487L34.089 13.0487L34.5911 13.8929C34.6034 13.9123 34.6139 13.9327 34.6223 13.9539Z" fill="#2916FC"></path>
<path d="M16.5655 7.23886V22.037C16.5655 22.2392 16.4832 22.4331 16.3366 22.576C16.1901 22.719 15.9913 22.7993 15.7841 22.7993H12.8908C12.6836 22.7993 12.4848 22.719 12.3383 22.576C12.1917 22.4331 12.1094 22.2392 12.1094 22.037V7.23886C12.1094 7.03669 12.1917 6.84279 12.3383 6.69983C12.4848 6.55688 12.6836 6.47656 12.8908 6.47656H15.7899C15.9961 6.47807 16.1934 6.55905 16.3387 6.70185C16.484 6.84464 16.5655 7.03767 16.5655 7.23886ZM24.622 7.66194L20.6836 13.362C20.6022 13.4809 20.5566 13.6196 20.5521 13.7625C20.5476 13.9054 20.5844 14.0466 20.6582 14.1701L25.1807 21.6521C25.2491 21.7675 25.2852 21.8983 25.2855 22.0316C25.2858 22.1648 25.2502 22.2959 25.1824 22.4116C25.1146 22.5272 25.0169 22.6236 24.8991 22.6909C24.7812 22.7583 24.6473 22.7944 24.5107 22.7955H21.2267C21.0884 22.7947 20.9527 22.7582 20.8336 22.6895C20.7146 22.6209 20.6163 22.5226 20.5488 22.4048L16.0556 14.5036C15.9887 14.3845 15.9556 14.2502 15.9597 14.1146C15.9639 13.9789 16.005 13.8467 16.079 13.7318L20.5605 6.83484C20.631 6.72776 20.7277 6.63958 20.8421 6.57833C20.9564 6.51708 21.0846 6.48472 21.215 6.48419H23.9715C24.1118 6.485 24.2492 6.52263 24.3695 6.59313C24.4897 6.66363 24.5882 6.76441 24.6548 6.88487C24.7213 7.00534 24.7534 7.14106 24.7476 7.27779C24.7419 7.41452 24.6985 7.54721 24.622 7.66194Z" fill="white"></path>
<path d="M33.581 17.5954L27.8238 27.3224H24.743L21.9279 22.5656L21.0938 21.1573L22.5218 18.7465L23.6901 16.7683L24.743 14.9922H32.0416L33.581 17.5954Z" fill="url(#paint0_linear_218_2308)"></path>
<path opacity="0.68" d="M24.3271 22.8546H21.5608L21.3811 22.5496L20.5469 21.1413L21.9749 18.7305L22.5766 17.7109L24.9971 21.713C25.065 21.8284 25.1007 21.959 25.1007 22.092C25.1008 22.225 25.0652 22.3557 24.9974 22.4711C24.9297 22.5865 24.8322 22.6826 24.7146 22.7499C24.597 22.8172 24.4634 22.8532 24.3271 22.8546Z" fill="white"></path>
<path d="M38.3632 20.4135C38.3091 20.2446 38.2357 20.0823 38.1444 19.9294L34.9621 14.559L34.6065 13.9606L34.3525 13.5299C34.1295 13.1554 33.8098 12.8445 33.4252 12.6281C33.0406 12.4118 32.6046 12.2976 32.1606 12.2969H24.5905C24.2252 12.2977 23.8643 12.3754 23.5325 12.5248C23.2008 12.6741 22.906 12.8915 22.6682 13.1621C22.5679 13.2766 22.4783 13.3997 22.4006 13.5299L20.8963 16.0779L18.6184 19.9294C18.6105 19.9417 18.6034 19.9544 18.5969 19.9675C18.3863 20.3402 18.2776 20.7596 18.2813 21.1852C18.2851 21.6108 18.4012 22.0282 18.6184 22.3974L22.4045 28.7969C22.6093 29.1414 22.8964 29.4327 23.2412 29.646C23.5861 29.8593 23.9785 29.9884 24.3854 30.0223C24.4538 30.0223 24.5241 30.0318 24.5944 30.0318H32.1704C32.2533 30.032 32.3361 30.0276 32.4185 30.0184L35.1086 34.2111C35.2626 34.4484 35.5064 34.6168 35.787 34.6796C36.0676 34.7424 36.3623 34.6946 36.607 34.5465L36.7691 34.4474C37.013 34.2978 37.1864 34.0602 37.2516 33.7864C37.3167 33.5126 37.2683 33.2248 37.1169 32.9857L34.3818 28.7416L38.1386 22.3954C38.3147 22.0983 38.4257 21.7687 38.4643 21.4275C38.503 21.0863 38.4686 20.741 38.3632 20.4135ZM34.8468 22.5574L32.0219 27.3218H24.7292L24.7116 27.2913L21.9161 22.5651L21.0819 21.1548L22.51 18.744L23.6821 16.7678L24.7155 15.0221H32.0493L33.5731 17.5949L35.681 21.1548L34.8468 22.5574Z" fill="#1C0DC9"></path>
<defs>
<linearGradient id="paint0_linear_218_2308" x1="21.0938" y1="21.1573" x2="33.581" y2="21.1573" gradientUnits="userSpaceOnUse">
<stop stop-color="#FF7879"></stop>
<stop offset="0.21" stop-color="#FC777B"></stop>
<stop offset="0.36" stop-color="#F27281"></stop>
<stop offset="0.5" stop-color="#E26B8A"></stop>
<stop offset="0.63" stop-color="#CB6098"></stop>
<stop offset="0.75" stop-color="#AE52AA"></stop>
<stop offset="0.86" stop-color="#8A41C0"></stop>
<stop offset="0.98" stop-color="#602EDA"></stop>
<stop offset="1" stop-color="#5529E0"></stop>
</linearGradient>
</defs>
</svg>